<svg width="8" height="51" viewBox="0 0 8 51" fill="none" xmlns="http://www.w3.org/2000/svg">
<path d="M4.18213 0.5C4.18213 0.223858 3.95827 0 3.68213 0C3.40599 0 3.18213 0.223858 3.18213 0.5H3.68213H4.18213ZM3.32858 50.8536C3.52384 51.0488 3.84042 51.0488 4.03568 50.8536L7.21766 47.6716C7.41293 47.4763 7.41293 47.1597 7.21766 46.9645C7.0224 46.7692 6.70582 46.7692 6.51056 46.9645L3.68213 49.7929L0.853702 46.9645C0.65844 46.7692 0.341857 46.7692 0.146595 46.9645C-0.0486672 47.1597 -0.0486672 47.4763 0.146595 47.6716L3.32858 50.8536ZM3.68213 0.5H3.18213L3.18213 50.5H3.68213H4.18213L4.18213 0.5H3.68213Z" fill="white"/>
</svg>
